<svg width="1024" height="1024" viewBox="0 0 1024 1024" fill="none" xmlns="http://www.w3.org/2000/svg">
<path d="M473.332 669.922L326.609 587.094C319.362 583.004 310.394 588.239 310.394 596.561V658.4C310.394 662.406 312.597 666.087 316.128 667.98L398.42 712.108C401.95 714.001 404.153 717.682 404.153 721.688V827.257C404.153 835.523 395.294 840.764 388.05 836.786L244.014 757.684C240.537 755.775 238.376 752.123 238.376 748.156V315.06C238.376 306.789 247.246 301.548 254.49 305.538L447.765 411.961C451.064 413.777 455.067 413.757 458.346 411.909L510.898 382.289C518.298 378.118 518.27 367.451 510.847 363.32L233.432 208.922C229.805 206.903 225.346 207.126 221.938 209.497L169.663 245.862C166.742 247.894 165 251.227 165 254.786V789.078C165 792.961 167.071 796.549 170.433 798.491L383.771 921.723L461.822 961.315C469.034 964.973 477.573 959.757 477.61 951.67L478.859 679.439C478.877 675.5 476.763 671.859 473.332 669.922Z" fill="url(#paint0_linear_10_22)"/>
<path d="M311.753 434.643V494.102C311.753 498.044 313.887 501.678 317.331 503.597L637.27 681.924C640.953 683.977 645.492 683.714 648.914 681.25L697.295 646.416C703.774 641.751 703.182 631.926 696.189 628.073L327.87 425.122C320.625 421.13 311.753 426.371 311.753 434.643Z" fill="url(#paint1_linear_10_22)"/>
<path d="M549.329 392.682L502.256 422.81C495.354 427.227 495.635 437.401 502.77 441.431L775.023 595.203C778.436 597.131 780.547 600.748 780.547 604.668V764.378C780.547 768.389 778.338 772.075 774.801 773.965L638.918 846.592C631.677 850.463 622.924 845.216 622.924 837.005V760.984C622.924 757.037 620.783 753.399 617.332 751.482L565.697 722.796C558.451 718.77 549.547 724.01 549.547 732.298V957.355C549.547 965.699 558.56 970.932 565.806 966.796L851.159 803.917C854.549 801.982 856.641 798.379 856.641 794.476V557.31C856.641 553.283 854.415 549.586 850.857 547.702L712.609 474.512C704.993 470.48 704.872 459.614 712.396 455.413L852.429 377.228C855.869 375.308 858 371.676 858 367.737V239.199C858 235.25 855.858 231.611 852.405 229.694L530.505 51.0068C527.147 49.143 523.055 49.189 519.741 51.1279L469.135 80.7275C461.954 84.9278 461.96 95.3088 469.146 99.5007L773.795 277.213C777.135 279.161 779.188 282.736 779.188 286.603V322.91C779.188 326.842 777.065 330.467 773.636 332.391L617.533 419.961C614.142 421.863 609.994 421.81 606.654 419.822L560.749 392.497C557.214 390.393 552.794 390.465 549.329 392.682Z" fill="url(#paint2_linear_10_22)"/>
<path d="M549.547 312.534V347.546C549.547 355.822 558.427 361.062 565.672 357.063L662.826 303.425C670.3 299.299 670.319 288.562 662.859 284.41L385.402 129.988C381.889 128.034 377.585 128.177 374.21 130.36L325.505 161.875C318.638 166.318 318.953 176.467 326.081 180.477L544.006 303.06C547.429 304.985 549.547 308.607 549.547 312.534Z" fill="url(#paint3_linear_10_22)"/>
<defs>
<linearGradient id="paint0_linear_10_22" x1="859.359" y1="48.0001" x2="166.359" y2="974.718" gradientUnits="userSpaceOnUse">
<stop stop-color="#66FFAC"/>
<stop offset="0.9999" stop-color="#22A35D"/>
<stop offset="1" stop-color="#66FFAC"/>
</linearGradient>
<linearGradient id="paint1_linear_10_22" x1="859.359" y1="48.0001" x2="166.359" y2="974.718" gradientUnits="userSpaceOnUse">
<stop stop-color="#66FFAC"/>
<stop offset="0.9999" stop-color="#22A35D"/>
<stop offset="1" stop-color="#66FFAC"/>
</linearGradient>
<linearGradient id="paint2_linear_10_22" x1="859.359" y1="48.0001" x2="166.359" y2="974.718" gradientUnits="userSpaceOnUse">
<stop stop-color="#66FFAC"/>
<stop offset="0.9999" stop-color="#22A35D"/>
<stop offset="1" stop-color="#66FFAC"/>
</linearGradient>
<linearGradient id="paint3_linear_10_22" x1="859.359" y1="48.0001" x2="166.359" y2="974.718" gradientUnits="userSpaceOnUse">
<stop stop-color="#66FFAC"/>
<stop offset="0.9999" stop-color="#22A35D"/>
<stop offset="1" stop-color="#66FFAC"/>
</linearGradient>
</defs>
</svg>
