<svg width="2027" height="770" viewBox="0 0 2027 770" fill="none" xmlns="http://www.w3.org/2000/svg">
<path d="M227.087 472.047L119.025 411.044C113.688 408.031 107.083 411.887 107.083 418.016V463.56C107.083 466.511 108.706 469.222 111.306 470.616L171.914 503.116C174.514 504.51 176.136 507.222 176.136 510.172V587.924C176.136 594.011 169.612 597.872 164.276 594.942L58.1941 536.683C55.6333 535.277 54.0418 532.587 54.0418 529.666V210.69C54.0418 204.599 60.574 200.739 65.9098 203.677L208.257 282.058C210.686 283.395 213.634 283.381 216.05 282.019L254.754 260.204C260.205 257.132 260.183 249.276 254.717 246.234L50.4005 132.519C47.7293 131.033 44.4445 131.197 41.9349 132.943L3.43414 159.726C1.28271 161.222 0 163.677 0 166.298V559.805C0 562.665 1.52531 565.307 4.00159 566.738L161.125 657.498L218.61 686.657C223.921 689.352 230.21 685.51 230.238 679.554L231.157 479.055C231.171 476.154 229.614 473.473 227.087 472.047Z" fill="url(#paint0_linear_13_66)"/>
<path d="M108.084 298.763V342.555C108.084 345.458 109.656 348.134 112.192 349.548L347.827 480.886C350.54 482.398 353.883 482.204 356.403 480.39L392.036 454.734C396.808 451.298 396.372 444.063 391.221 441.225L119.954 291.751C114.618 288.811 108.084 292.671 108.084 298.763Z" fill="url(#paint1_linear_13_66)"/>
<path d="M283.059 267.859L248.389 290.048C243.306 293.301 243.513 300.794 248.768 303.762L449.282 417.016C451.796 418.436 453.351 421.099 453.351 423.987V541.614C453.351 544.568 451.724 547.282 449.119 548.674L349.041 602.164C343.708 605.015 337.261 601.15 337.261 595.103V539.114C337.261 536.206 335.685 533.527 333.143 532.115L295.114 510.988C289.777 508.023 283.219 511.882 283.219 517.986V683.741C283.219 689.886 289.857 693.741 295.194 690.694L505.357 570.734C507.854 569.309 509.394 566.655 509.394 563.781V389.107C509.394 386.142 507.755 383.419 505.134 382.031L403.314 328.127C397.706 325.157 397.616 317.154 403.157 314.061L506.292 256.477C508.825 255.063 510.395 252.388 510.395 249.487V154.818C510.395 151.91 508.818 149.23 506.275 147.818L269.195 16.2145C266.722 14.8418 263.708 14.8757 261.267 16.3037L223.996 38.1039C218.707 41.1974 218.711 48.843 224.004 51.9303L448.378 182.815C450.838 184.25 452.35 186.884 452.35 189.731V216.472C452.35 219.368 450.787 222.038 448.261 223.454L333.291 287.95C330.794 289.351 327.739 289.311 325.279 287.847L291.47 267.723C288.866 266.173 285.611 266.226 283.059 267.859Z" fill="url(#paint2_linear_13_66)"/>
<path d="M283.219 208.83V234.616C283.219 240.711 289.759 244.571 295.095 241.625L366.649 202.121C372.154 199.082 372.168 191.174 366.673 188.116L162.326 74.3846C159.739 72.9448 156.569 73.0502 154.083 74.6585L118.212 97.8694C113.155 101.142 113.386 108.616 118.636 111.569L279.138 201.852C281.659 203.27 283.219 205.937 283.219 208.83Z" fill="url(#paint3_linear_13_66)"/>
<path d="M911.246 334.445C928.108 338.111 942.221 346.542 953.584 359.738C965.314 372.935 971.179 389.247 971.179 408.674C971.179 435.434 962.748 456.511 945.886 471.907C929.024 487.302 904.831 495 873.307 495H760.589C757.656 495 756.19 493.35 756.19 490.051V194.235C756.19 190.936 757.656 189.286 760.589 189.286H863.96C893.651 189.286 916.745 196.068 933.24 209.631C949.735 223.194 957.983 242.438 957.983 267.364C957.983 286.426 953.218 301.088 943.687 311.352C934.156 321.616 923.343 329.314 911.246 334.445ZM797.978 316.301H870.008C885.403 316.301 896.95 312.085 904.648 303.654C912.712 294.857 916.745 283.676 916.745 270.114C916.745 256.551 912.529 245.92 904.098 238.223C895.667 230.525 883.021 226.676 866.159 226.676H797.978V316.301ZM797.978 457.611H867.808C876.973 457.611 886.137 456.511 895.301 454.312C904.465 452.112 912.163 447.347 918.394 440.016C924.626 432.318 927.742 420.588 927.742 404.826C927.742 390.163 922.976 377.883 913.446 367.986C903.915 358.089 888.886 353.14 868.358 353.14H797.978V457.611ZM1105.52 500.498C1075.46 500.498 1052.92 491.701 1037.89 474.106C1022.86 456.144 1015.35 431.585 1015.35 400.427V297.606C1015.35 294.307 1016.81 292.657 1019.75 292.657H1022.5C1044.86 292.657 1056.04 305.304 1056.04 330.597V404.826C1056.04 424.253 1060.43 438.733 1069.23 448.263C1078.4 457.794 1090.49 462.559 1105.52 462.559C1120.55 462.559 1132.46 458.344 1141.26 449.913C1150.43 441.115 1155.01 426.636 1155.01 406.475V297.606C1155.01 294.307 1156.47 292.657 1159.41 292.657H1162.16C1184.88 292.657 1196.25 305.304 1196.25 330.597V403.176C1196.25 433.234 1188.55 457.061 1173.15 474.656C1158.12 491.884 1135.58 500.498 1105.52 500.498ZM1247.81 238.223C1247.81 230.891 1250.19 224.843 1254.96 220.078C1259.72 215.312 1265.59 212.93 1272.55 212.93C1279.15 212.93 1284.83 215.312 1289.6 220.078C1294.36 224.843 1296.75 230.891 1296.75 238.223C1296.75 245.187 1294.36 251.052 1289.6 255.818C1284.83 260.583 1279.15 262.966 1272.55 262.966C1265.59 262.966 1259.72 260.583 1254.96 255.818C1250.19 251.052 1247.81 245.187 1247.81 238.223ZM1256.06 495C1253.13 495 1251.66 493.35 1251.66 490.051V297.606C1251.66 294.307 1253.13 292.657 1256.06 292.657H1258.81C1269.44 292.657 1277.69 295.773 1283.55 302.005C1289.78 308.236 1292.9 317.767 1292.9 330.597V490.051C1292.9 493.35 1291.43 495 1288.5 495H1256.06ZM1401.05 499.949C1385.28 499.949 1372.82 495 1363.66 485.103C1354.49 474.839 1349.91 458.71 1349.91 436.716V194.235C1349.91 190.936 1351.38 189.286 1354.31 189.286H1357.06C1379.42 189.286 1390.6 201.933 1390.6 227.226V433.967C1390.6 453.029 1397.75 462.559 1412.04 462.559C1417.91 462.559 1422.86 461.459 1426.89 459.26C1430.92 456.694 1434.77 453.395 1438.44 449.363C1440.27 447.164 1442.1 446.064 1443.93 446.064C1445.77 446.064 1447.05 446.797 1447.78 448.263C1448.52 449.729 1448.88 451.379 1448.88 453.212C1448.88 459.077 1447.23 465.675 1443.93 473.006C1441 480.337 1436.05 486.752 1429.09 492.251C1422.12 497.383 1412.78 499.949 1401.05 499.949ZM1631.13 319.05V194.235C1631.13 190.936 1632.59 189.286 1635.52 189.286H1638.27C1648.9 189.286 1657.15 192.402 1663.02 198.634C1669.25 204.865 1672.36 214.396 1672.36 227.226V490.051C1672.36 493.35 1670.9 495 1667.97 495H1635.52C1632.59 495 1631.13 493.35 1631.13 490.051V466.408C1623.43 477.772 1613.71 486.202 1601.98 491.701C1590.62 497.199 1577.97 499.949 1564.04 499.949C1544.25 499.949 1527.21 495.183 1512.91 485.653C1498.98 476.122 1488.17 463.292 1480.47 447.164C1473.14 431.035 1469.47 413.256 1469.47 393.829C1469.47 373.301 1473.5 355.156 1481.57 339.394C1489.63 323.265 1500.81 310.619 1515.11 301.455C1529.77 292.291 1547 287.709 1566.79 287.709C1580.72 287.709 1593.37 290.458 1604.73 295.956C1616.1 301.455 1624.89 309.153 1631.13 319.05ZM1570.09 461.459C1579.26 461.459 1588.42 459.627 1597.59 455.961C1607.12 451.929 1615 444.964 1621.23 435.067C1627.83 425.17 1631.13 411.424 1631.13 393.829C1631.13 375.867 1627.83 362.121 1621.23 352.59C1615 342.693 1607.3 335.912 1598.14 332.246C1588.97 328.58 1580.17 326.748 1571.74 326.748C1555.98 326.748 1542.05 332.246 1529.95 343.243C1517.86 354.24 1511.81 371.102 1511.81 393.829C1511.81 410.324 1514.74 423.52 1520.61 433.417C1526.84 443.315 1534.35 450.463 1543.15 454.861C1552.31 459.26 1561.3 461.459 1570.09 461.459Z" fill="white"/>
<path d="M1761.98 408.674C1764.18 427.736 1771.14 441.848 1782.87 451.012C1794.6 459.81 1810 464.209 1829.06 464.209C1844.46 464.209 1856.74 462.193 1865.9 458.16C1875.06 454.128 1883.5 449.363 1891.19 443.864C1892.66 443.131 1893.94 442.215 1895.04 441.115C1896.51 440.016 1897.79 439.466 1898.89 439.466C1900.72 439.466 1902.01 440.382 1902.74 442.215C1903.84 443.681 1904.39 445.331 1904.39 447.164C1904.39 454.861 1901.27 462.926 1895.04 471.357C1889.18 479.421 1880.2 486.202 1868.1 491.701C1856.37 497.199 1841.71 499.949 1824.11 499.949C1806.15 499.949 1789.29 496.283 1773.53 488.952C1758.13 481.254 1745.48 469.707 1735.59 454.312C1726.06 438.549 1721.29 418.388 1721.29 393.829C1721.29 373.301 1725.32 355.156 1733.39 339.394C1741.45 323.265 1752.63 310.619 1766.93 301.455C1781.59 292.291 1798.45 287.709 1817.51 287.709C1839.14 287.709 1856.55 292.291 1869.75 301.455C1882.95 310.252 1892.48 321.799 1898.34 336.095C1904.57 350.024 1907.69 364.87 1907.69 380.632C1907.69 385.398 1907.51 389.43 1907.14 392.729C1907.14 396.028 1906.96 399.144 1906.59 402.076C1906.22 406.475 1903.47 408.674 1898.34 408.674H1761.98ZM1763.08 377.333H1867C1867.37 368.902 1866.08 360.655 1863.15 352.59C1860.59 344.526 1855.64 337.744 1848.31 332.246C1840.97 326.748 1830.53 323.998 1816.96 323.998C1801.57 323.998 1789.11 328.764 1779.58 338.294C1770.41 347.458 1764.91 360.471 1763.08 377.333ZM1952.84 238.223C1952.84 230.891 1955.22 224.843 1959.98 220.078C1964.75 215.312 1970.61 212.93 1977.58 212.93C1984.18 212.93 1989.86 215.312 1994.62 220.078C1999.39 224.843 2001.77 230.891 2001.77 238.223C2001.77 245.187 1999.39 251.052 1994.62 255.818C1989.86 260.583 1984.18 262.966 1977.58 262.966C1970.61 262.966 1964.75 260.583 1959.98 255.818C1955.22 251.052 1952.84 245.187 1952.84 238.223ZM1961.08 495C1958.15 495 1956.69 493.35 1956.69 490.051V297.606C1956.69 294.307 1958.15 292.657 1961.08 292.657H1963.83C1974.46 292.657 1982.71 295.773 1988.58 302.005C1994.81 308.236 1997.92 317.767 1997.92 330.597V490.051C1997.92 493.35 1996.46 495 1993.52 495H1961.08Z" fill="url(#paint4_linear_13_66)"/>
<circle cx="1977.09" cy="238.05" r="25.036" fill="white"/>
<path d="M1297.19 239.295C1296.48 230.693 1294.49 221.313 1290.61 208.864C1287.65 199.351 1287.75 188.223 1287.97 183.503C1288 182.921 1287.16 182.64 1286.82 183.116C1284.22 186.826 1277.97 194.989 1270.63 199.182C1261.83 206.098 1247.12 225.463 1247.12 239.295H1297.19Z" fill="#66FFAC"/>
<path d="M1272.15 264.469C1285.98 264.469 1297.19 253.26 1297.19 239.433C1297.19 225.606 1285.98 214.397 1272.15 214.397C1258.32 214.397 1247.11 225.606 1247.11 239.433C1247.11 253.26 1258.32 264.469 1272.15 264.469Z" fill="url(#paint5_linear_13_66)"/>
<defs>
<linearGradient id="paint0_linear_13_66" x1="511.396" y1="14.0001" x2="1.00077" y2="696.529" gradientUnits="userSpaceOnUse">
<stop stop-color="#66FFAC"/>
<stop offset="0.9999" stop-color="#22A35D"/>
<stop offset="1" stop-color="#66FFAC"/>
</linearGradient>
<linearGradient id="paint1_linear_13_66" x1="511.396" y1="14.0001" x2="1.00077" y2="696.529" gradientUnits="userSpaceOnUse">
<stop stop-color="#66FFAC"/>
<stop offset="0.9999" stop-color="#22A35D"/>
<stop offset="1" stop-color="#66FFAC"/>
</linearGradient>
<linearGradient id="paint2_linear_13_66" x1="511.396" y1="14.0001" x2="1.00077" y2="696.529" gradientUnits="userSpaceOnUse">
<stop stop-color="#66FFAC"/>
<stop offset="0.9999" stop-color="#22A35D"/>
<stop offset="1" stop-color="#66FFAC"/>
</linearGradient>
<linearGradient id="paint3_linear_13_66" x1="511.396" y1="14.0001" x2="1.00077" y2="696.529" gradientUnits="userSpaceOnUse">
<stop stop-color="#66FFAC"/>
<stop offset="0.9999" stop-color="#22A35D"/>
<stop offset="1" stop-color="#66FFAC"/>
</linearGradient>
<linearGradient id="paint4_linear_13_66" x1="2027" y1="117.716" x2="1798.36" y2="548.223" gradientUnits="userSpaceOnUse">
<stop offset="0.53" stop-color="#66FFAC"/>
<stop offset="1" stop-color="#4BBC7F"/>
</linearGradient>
<linearGradient id="paint5_linear_13_66" x1="1285.35" y1="175.667" x2="1257.68" y2="264.192" gradientUnits="userSpaceOnUse">
<stop offset="0.54" stop-color="#66FFAC"/>
<stop offset="0.715" stop-color="#60F0A2"/>
<stop offset="1" stop-color="#3D9967"/>
</linearGradient>
</defs>
</svg>
